#N canvas 224 316 920 591 10;
#X obj 576 332 pddp/dsp;
#X obj 454 313 noise~;
#X obj 314 447 +~;
#X obj 385 469 *~;
#X obj 221 418 phasor~;
#X obj 307 411 phasor~;
#X obj 341 531 dac~ 1 2 3 4;
#X floatatom 221 288 5 0 9 0 - - -;
#X floatatom 322 311 5 0 0 0 - - -;
#X obj 325 480 +~;
#X obj 496 347 *~;
#X floatatom 536 313 5 0 0 0 - - -;
#X obj 544 385 env~ 1024;
#X obj 479 371 lop~ 20;
#X obj 430 373 hip~ 1;
#X floatatom 392 269 5 0 0 0 - - -;
#X obj 307 337 -;
#X obj 377 306 -;
#X obj 247 60 comport 2 9600;
#X msg 153 5 close;
#X msg 85 5 open 2;
#X floatatom 236 184 5 0 0 0 - - -;
#X floatatom 343 197 5 0 0 0 - - -;
#X obj 280 244 *;
#X connect 1 0 10 0;
#X connect 1 0 14 0;
#X connect 2 0 9 0;
#X connect 3 0 6 1;
#X connect 3 0 6 0;
#X connect 4 0 2 0;
#X connect 5 0 2 1;
#X connect 7 0 4 0;
#X connect 7 0 16 0;
#X connect 7 0 17 0;
#X connect 8 0 16 1;
#X connect 9 0 6 0;
#X connect 9 0 6 1;
#X connect 10 0 13 0;
#X connect 10 0 14 0;
#X connect 11 0 10 1;
#X connect 13 0 3 1;
#X connect 15 0 17 1;
#X connect 16 0 5 0;
#X connect 17 0 3 0;
#X connect 18 0 21 0;
#X connect 19 0 18 0;
#X connect 20 0 18 0;
#X connect 21 0 23 0;
#X connect 22 0 23 1;
#X connect 23 0 7 0;
