#N canvas 374 122 886 550 10;
#X obj 764 234 pddp/dsp;
#X obj 669 215 noise~;
#X obj 479 312 +~;
#X obj 574 371 *~;
#X obj 386 283 phasor~;
#X obj 434 252 phasor~;
#X obj 462 468 dac~ 1 2 3 4;
#X floatatom 383 186 5 0 0 0 - - -;
#X obj 480 368 +~;
#X obj 620 246 *~;
#X obj 566 208 -;
#X obj 487 140 53;
#X obj 635 193 1;
#X obj 582 140 -20;
#X obj 733 239 vsl 15 128 0 3 0 0 empty empty empty 0 -9 0 10 -262144
-1 -1 300 1;
#X obj 668 273 lop~ 3;
#X obj 668 317 env~ 4096;
#X obj 472 202 +;
#X obj 317 211 / 2;
#X obj 303 297 osc~;
#X obj 376 381 nbx 5 14 0 1 0 0 empty empty empty 0 -8 0 10 -262144
-1 -1 0 256;
#X obj 475 406 *~;
#X obj 207 115 comport 2 9600;
#X msg 113 60 close;
#X msg 45 60 open 2;
#X msg 259 81 devices;
#X connect 1 0 9 1;
#X connect 2 0 8 0;
#X connect 3 0 8 1;
#X connect 4 0 2 0;
#X connect 5 0 2 1;
#X connect 7 0 4 0;
#X connect 7 0 10 0;
#X connect 7 0 17 0;
#X connect 7 0 18 0;
#X connect 7 0 20 0;
#X connect 8 0 21 1;
#X connect 9 0 15 0;
#X connect 10 0 9 0;
#X connect 11 0 17 1;
#X connect 13 0 10 1;
#X connect 14 0 3 0;
#X connect 15 0 16 0;
#X connect 16 0 3 1;
#X connect 17 0 5 0;
#X connect 18 0 19 0;
#X connect 19 0 2 0;
#X connect 20 0 21 0;
#X connect 21 0 6 1;
#X connect 21 0 6 0;
#X connect 22 0 7 0;
#X connect 23 0 22 0;
#X connect 24 0 22 0;
#X connect 25 0 22 0;
